<?xml version="1.0" encoding="UTF-8"?>
<svg id="Calque_1" xmlns="http://www.w3.org/2000/svg" viewBox="0 0 160 160">
  <!-- Generator: Adobe Illustrator 30.1.0, SVG Export Plug-In . SVG Version: 2.1.1 Build 136)  -->
  <defs>
      <style>
          .st0 { fill: currentColor; }
      </style>
  </defs>
  <path class="st0" d="M66.92,55.87l6.33-6.11s6.7-.22,6.92-6.04v-4.56l7.31-7.31v11.8s-.52,15.16-20.56,12.22Z"/>
  <path class="st0" d="M80.34,36.54l7.14-7.36v-2.21s-.2-.83.56-.66,6.04,1.45,8.17-4.86c0,0-4.05,2.94-10.65-.52,0,0-3.66-2.63-7.83-2.26s-7.11,3.14-7.19,3.16-2.77,3.07-3.41,4.66c0,0,6.43-5.08,10.06-3.8s3.09,4.66,3.09,4.66l.05,9.18Z"/>
  <path class="st0" d="M66.42,79.61s-4.39-17.97,18.34-22.11c0,0,8.41-2.23,9.23-3.11,0,0-4.83,11.28-8.59,14.34,0,0-4.62,4.62-13.81,9.83,0,0-2.62,1.57-2.41,6.22,0,0,1.22-4.53,5.74-4.71,0,0-2.54,8.95,4.19,11.77,6.73,2.82,10.3-3.61,10.3-3.61,0,0,3.16-7.34-4.66-9.08l-9.63.02s-4.73,1.12-5.42,3.68c0,0,.14-2.53,2.31-3.94,2.17-1.41,5.23-2.99,8.48-5.45,0,0,11.05-1.17,15.49,7.9,2.27,4.63.56,9.31-1.96,12.23-2.42,2.81-5.61,3.94-6.04,4.14-.87.39-8.42,2.42-14.2-1.64s-5.79-9.13-5.74-10.09-.5-8.18,4.48-13.62c4.98-5.44,9.33-9.01,13.49-10.42,0,0-16.55,3.79-19.61,17.65Z"/>
  <path class="st0" d="M90.5,127s-.01-.02-.01-.02l-15.12-25.52v9.99l14.22,25.02c.32.39.62.73.92,1.02v-10.5Z"/>
  <path class="st0" d="M74,113.11v-.97c0-.24-.01-.44-.02-.58-.02-.32,0-.56.02-.75v-11.31c-4.59-2.88-6.22,2.96-6.22,2.96v36.23l6.2-6.44s.11-14.04.04-19.13h-.02Z"/>
  <path class="st0" d="M91.83,105.3s.09,16.97.01,20.92h.02v12.41c4,2.35,5.83-3.42,5.83-3.42v-36.62l-5.87,6.71Z"/>
</svg>